<svg width="1660" height="600" viewBox="0 0 1660 600" fill="none" xmlns="http://www.w3.org/2000/svg">
<rect x="170" y="198" width="100" height="280" fill="url(#paint0_linear_16_48)" stroke="url(#paint1_linear_16_48)" stroke-width="20"/>
<circle cx="325" cy="236" r="115" fill="url(#paint2_linear_16_48)" stroke="url(#paint3_linear_16_48)" stroke-width="20"/>
<mask id="path-3-inside-1_16_48" fill="white">
<path fill-rule="evenodd" clip-rule="evenodd" d="M209.548 188H280V352.655C233.199 334.59 200 289.172 200 236C200 218.993 203.396 202.779 209.548 188Z"/>
</mask>
<path fill-rule="evenodd" clip-rule="evenodd" d="M209.548 188H280V352.655C233.199 334.59 200 289.172 200 236C200 218.993 203.396 202.779 209.548 188Z" fill="white"/>
<path d="M209.548 188V168H196.209L191.084 180.315L209.548 188ZM280 188H300V168H280V188ZM280 352.655L272.798 371.313L300 381.814V352.655H280ZM209.548 208H280V168H209.548V208ZM260 188V352.655H300V188H260ZM287.202 333.997C247.856 318.809 220 280.633 220 236H180C180 297.711 218.543 350.37 272.798 371.313L287.202 333.997ZM220 236C220 221.677 222.857 208.072 228.012 195.685L191.084 180.315C183.936 197.486 180 216.309 180 236H220Z" fill="white" mask="url(#path-3-inside-1_16_48)"/>
<path d="M536.375 453V266.818H616.739C630.557 266.818 642.648 269.545 653.011 275C663.375 280.455 671.436 288.121 677.193 298C682.951 307.879 685.83 319.424 685.83 332.636C685.83 345.97 682.86 357.515 676.92 367.273C671.042 377.03 662.769 384.545 652.102 389.818C641.496 395.091 629.102 397.727 614.92 397.727H566.92V358.455H604.739C610.678 358.455 615.739 357.424 619.92 355.364C624.163 353.242 627.405 350.242 629.648 346.364C631.951 342.485 633.102 337.909 633.102 332.636C633.102 327.303 631.951 322.758 629.648 319C627.405 315.182 624.163 312.273 619.92 310.273C615.739 308.212 610.678 307.182 604.739 307.182H586.92V453H536.375ZM705.102 453V313.364H755.284V453H705.102ZM730.193 298.818C723.405 298.818 717.587 296.576 712.739 292.091C707.89 287.606 705.466 282.212 705.466 275.909C705.466 269.606 707.89 264.212 712.739 259.727C717.587 255.242 723.405 253 730.193 253C737.042 253 742.86 255.242 747.648 259.727C752.496 264.212 754.92 269.606 754.92 275.909C754.92 282.212 752.496 287.606 747.648 292.091C742.86 296.576 737.042 298.818 730.193 298.818ZM848.125 455.545C832.973 455.545 820.004 452.545 809.216 446.545C798.428 440.485 790.155 432.061 784.398 421.273C778.64 410.424 775.761 397.848 775.761 383.545C775.761 369.242 778.64 356.697 784.398 345.909C790.155 335.061 798.428 326.636 809.216 320.636C820.004 314.576 832.973 311.545 848.125 311.545C861.822 311.545 873.67 314.03 883.67 319C893.731 323.909 901.519 330.879 907.034 339.909C912.549 348.879 915.337 359.424 915.398 371.545H868.852C868.186 364.212 866.064 358.636 862.489 354.818C858.973 350.939 854.428 349 848.852 349C844.489 349 840.67 350.273 837.398 352.818C834.125 355.303 831.58 359.091 829.761 364.182C827.943 369.212 827.034 375.545 827.034 383.182C827.034 390.818 827.943 397.182 829.761 402.273C831.58 407.303 834.125 411.091 837.398 413.636C840.67 416.121 844.489 417.364 848.852 417.364C852.549 417.364 855.822 416.515 858.67 414.818C861.519 413.061 863.822 410.515 865.58 407.182C867.398 403.788 868.489 399.667 868.852 394.818H915.398C915.216 407.121 912.398 417.848 906.943 427C901.489 436.091 893.761 443.121 883.761 448.091C873.822 453.061 861.943 455.545 848.125 455.545ZM975.011 455.182C966.102 455.182 958.223 453.727 951.375 450.818C944.587 447.848 939.254 443.364 935.375 437.364C931.496 431.364 929.557 423.727 929.557 414.455C929.557 406.818 930.86 400.303 933.466 394.909C936.072 389.455 939.708 385 944.375 381.545C949.042 378.091 954.466 375.455 960.648 373.636C966.89 371.818 973.617 370.636 980.83 370.091C988.648 369.485 994.92 368.758 999.648 367.909C1004.44 367 1007.89 365.758 1010.01 364.182C1012.13 362.545 1013.19 360.394 1013.19 357.727V357.364C1013.19 353.727 1011.8 350.939 1009.01 349C1006.22 347.061 1002.65 346.091 998.284 346.091C993.496 346.091 989.587 347.152 986.557 349.273C983.587 351.333 981.799 354.515 981.193 358.818H935.011C935.617 350.333 938.314 342.515 943.102 335.364C947.951 328.152 955.011 322.394 964.284 318.091C973.557 313.727 985.133 311.545 999.011 311.545C1009.01 311.545 1017.98 312.727 1025.92 315.091C1033.86 317.394 1040.62 320.636 1046.19 324.818C1051.77 328.939 1056.01 333.788 1058.92 339.364C1061.89 344.879 1063.38 350.879 1063.38 357.364V453H1016.47V433.364H1015.38C1012.59 438.576 1009.19 442.788 1005.19 446C1001.25 449.212 996.739 451.545 991.648 453C986.617 454.455 981.072 455.182 975.011 455.182ZM991.375 423.545C995.193 423.545 998.769 422.758 1002.1 421.182C1005.5 419.606 1008.25 417.333 1010.38 414.364C1012.5 411.394 1013.56 407.788 1013.56 403.545V391.909C1012.22 392.455 1010.8 392.97 1009.28 393.455C1007.83 393.939 1006.25 394.394 1004.56 394.818C1002.92 395.242 1001.16 395.636 999.284 396C997.466 396.364 995.557 396.697 993.557 397C989.678 397.606 986.496 398.606 984.011 400C981.587 401.333 979.769 403 978.557 405C977.405 406.939 976.83 409.121 976.83 411.545C976.83 415.424 978.193 418.394 980.92 420.455C983.648 422.515 987.133 423.545 991.375 423.545ZM1214.99 358.818H1168.81C1168.56 355.97 1167.56 353.515 1165.81 351.455C1164.05 349.394 1161.78 347.818 1158.99 346.727C1156.26 345.576 1153.23 345 1149.9 345C1145.59 345 1141.9 345.788 1138.81 347.364C1135.72 348.939 1134.2 351.182 1134.26 354.091C1134.2 356.152 1135.08 358.061 1136.9 359.818C1138.78 361.576 1142.38 362.939 1147.72 363.909L1176.08 369C1190.38 371.606 1201.02 376 1207.99 382.182C1215.02 388.303 1218.56 396.515 1218.62 406.818C1218.56 416.758 1215.59 425.394 1209.72 432.727C1203.9 440 1195.93 445.636 1185.81 449.636C1175.75 453.576 1164.26 455.545 1151.35 455.545C1130.02 455.545 1113.32 451.182 1101.26 442.455C1089.26 433.727 1082.56 422.212 1081.17 407.909H1130.99C1131.66 412.333 1133.84 415.758 1137.53 418.182C1141.29 420.545 1146.02 421.727 1151.72 421.727C1156.32 421.727 1160.11 420.939 1163.08 419.364C1166.11 417.788 1167.66 415.545 1167.72 412.636C1167.66 409.97 1166.32 407.848 1163.72 406.273C1161.17 404.697 1157.17 403.424 1151.72 402.455L1126.99 398.091C1112.75 395.606 1102.08 390.879 1094.99 383.909C1087.9 376.939 1084.38 367.97 1084.44 357C1084.38 347.303 1086.93 339.091 1092.08 332.364C1097.29 325.576 1104.72 320.424 1114.35 316.909C1124.05 313.333 1135.53 311.545 1148.81 311.545C1168.99 311.545 1184.9 315.727 1196.53 324.091C1208.23 332.455 1214.38 344.03 1214.99 358.818ZM1365.49 358.818H1319.31C1319.06 355.97 1318.06 353.515 1316.31 351.455C1314.55 349.394 1312.28 347.818 1309.49 346.727C1306.76 345.576 1303.73 345 1300.4 345C1296.09 345 1292.4 345.788 1289.31 347.364C1286.22 348.939 1284.7 351.182 1284.76 354.091C1284.7 356.152 1285.58 358.061 1287.4 359.818C1289.28 361.576 1292.88 362.939 1298.22 363.909L1326.58 369C1340.88 371.606 1351.52 376 1358.49 382.182C1365.52 388.303 1369.06 396.515 1369.12 406.818C1369.06 416.758 1366.09 425.394 1360.22 432.727C1354.4 440 1346.43 445.636 1336.31 449.636C1326.25 453.576 1314.76 455.545 1301.85 455.545C1280.52 455.545 1263.82 451.182 1251.76 442.455C1239.76 433.727 1233.06 422.212 1231.67 407.909H1281.49C1282.16 412.333 1284.34 415.758 1288.03 418.182C1291.79 420.545 1296.52 421.727 1302.22 421.727C1306.82 421.727 1310.61 420.939 1313.58 419.364C1316.61 417.788 1318.16 415.545 1318.22 412.636C1318.16 409.97 1316.82 407.848 1314.22 406.273C1311.67 404.697 1307.67 403.424 1302.22 402.455L1277.49 398.091C1263.25 395.606 1252.58 390.879 1245.49 383.909C1238.4 376.939 1234.88 367.97 1234.94 357C1234.88 347.303 1237.43 339.091 1242.58 332.364C1247.79 325.576 1255.22 320.424 1264.85 316.909C1274.55 313.333 1286.03 311.545 1299.31 311.545C1319.49 311.545 1335.4 315.727 1347.03 324.091C1358.73 332.455 1364.88 344.03 1365.49 358.818ZM1455.62 455.545C1440.47 455.545 1427.5 452.545 1416.72 446.545C1405.93 440.485 1397.66 432.061 1391.9 421.273C1386.14 410.424 1383.26 397.848 1383.26 383.545C1383.26 369.242 1386.14 356.697 1391.9 345.909C1397.66 335.061 1405.93 326.636 1416.72 320.636C1427.5 314.576 1440.47 311.545 1455.62 311.545C1470.78 311.545 1483.75 314.576 1494.53 320.636C1505.32 326.636 1513.59 335.061 1519.35 345.909C1525.11 356.697 1527.99 369.242 1527.99 383.545C1527.99 397.848 1525.11 410.424 1519.35 421.273C1513.59 432.061 1505.32 440.485 1494.53 446.545C1483.75 452.545 1470.78 455.545 1455.62 455.545ZM1455.99 418.455C1460.23 418.455 1463.9 417.03 1466.99 414.182C1470.08 411.333 1472.47 407.273 1474.17 402C1475.87 396.727 1476.72 390.455 1476.72 383.182C1476.72 375.848 1475.87 369.576 1474.17 364.364C1472.47 359.091 1470.08 355.03 1466.99 352.182C1463.9 349.333 1460.23 347.909 1455.99 347.909C1451.5 347.909 1447.66 349.333 1444.44 352.182C1441.23 355.03 1438.78 359.091 1437.08 364.364C1435.38 369.576 1434.53 375.848 1434.53 383.182C1434.53 390.455 1435.38 396.727 1437.08 402C1438.78 407.273 1441.23 411.333 1444.44 414.182C1447.66 417.03 1451.5 418.455 1455.99 418.455Z" fill="url(#paint4_linear_16_48)"/>
<defs>
<linearGradient id="paint0_linear_16_48" x1="220" y1="188" x2="220" y2="488" gradientUnits="userSpaceOnUse">
<stop stop-color="#D56AFC"/>
<stop offset="1" stop-color="white"/>
</linearGradient>
<linearGradient id="paint1_linear_16_48" x1="220" y1="188" x2="220" y2="488" gradientUnits="userSpaceOnUse">
<stop stop-color="#D56AFC"/>
<stop offset="1" stop-color="white"/>
</linearGradient>
<linearGradient id="paint2_linear_16_48" x1="325" y1="111" x2="325" y2="361" gradientUnits="userSpaceOnUse">
<stop stop-color="#D56AFC"/>
<stop offset="1" stop-color="white"/>
</linearGradient>
<linearGradient id="paint3_linear_16_48" x1="325" y1="111" x2="325" y2="361" gradientUnits="userSpaceOnUse">
<stop stop-color="#D56AFC"/>
<stop offset="1" stop-color="white"/>
</linearGradient>
<linearGradient id="paint4_linear_16_48" x1="520" y1="360" x2="1540" y2="360" gradientUnits="userSpaceOnUse">
<stop stop-color="#CD44FF"/>
<stop offset="1" stop-color="#EDBDFF"/>
</linearGradient>
</defs>
</svg>
